<svg width="25" height="24" viewBox="0 0 25 24" fill="none" xmlns="http://www.w3.org/2000/svg">
<path fill-rule="evenodd" clip-rule="evenodd" d="M13.336 0.155782C13.1758 0.0540327 12.9899 0 12.8 0C12.6102 0 12.4243 0.0540327 12.264 0.155782L1.26405 7.15578C1.12191 7.24603 1.00486 7.3707 0.923745 7.51824C0.842633 7.66578 0.800086 7.83141 0.800049 7.99978V22.9998C0.800049 23.265 0.905406 23.5194 1.09294 23.7069C1.28048 23.8944 1.53483 23.9998 1.80005 23.9998H23.8C24.0653 23.9998 24.3196 23.8944 24.5072 23.7069C24.6947 23.5194 24.8 23.265 24.8 22.9998V7.99978C24.8 7.83141 24.7575 7.66578 24.6764 7.51824C24.5952 7.3707 24.4782 7.24603 24.336 7.15578L13.336 0.155782ZM6.80005 17.9998H18.8V15.9998H6.80005V17.9998Z" fill="currentColor"/>
</svg>
