<svg width="27" height="28" viewBox="0 0 27 28" fill="none" xmlns="http://www.w3.org/2000/svg">
<path fill-rule="evenodd" clip-rule="evenodd" d="M0.230733 15.0881C0.6134 16.4255 1.64407 17.4548 3.70407 19.5148L6.14407 21.9548C9.73073 25.5428 11.5227 27.3335 13.7494 27.3335C15.9774 27.3335 17.7694 25.5415 21.3547 21.9561C24.9414 18.3695 26.7334 16.5775 26.7334 14.3495C26.7334 12.1228 24.9414 10.3295 21.3561 6.74415L18.9161 4.30415C16.8547 2.24415 15.8254 1.21348 14.4881 0.830814C13.1507 0.446814 11.7307 0.774814 8.89207 1.43081L7.25473 1.80815C4.8654 2.35881 3.67073 2.63481 2.85207 3.45215C2.0334 4.26948 1.76007 5.46681 1.20807 7.85481L0.8294 9.49215C0.174733 12.3321 -0.151933 13.7508 0.230733 15.0881ZM10.8961 7.69481C11.1532 7.94282 11.3584 8.23958 11.4996 8.56777C11.6408 8.89596 11.7152 9.24899 11.7184 9.60624C11.7217 9.9635 11.6537 10.3178 11.5185 10.6485C11.3832 10.9792 11.1835 11.2796 10.9309 11.5323C10.6782 11.7849 10.3778 11.9847 10.0471 12.1199C9.71641 12.2551 9.36209 12.3231 9.00483 12.3198C8.64757 12.3166 8.29454 12.2422 7.96636 12.101C7.63817 11.9598 7.34141 11.7546 7.0934 11.4975C6.60414 10.9902 6.3336 10.311 6.33998 9.60624C6.34637 8.90146 6.62918 8.22735 7.12756 7.72898C7.62594 7.2306 8.30005 6.94779 9.00483 6.9414C9.70961 6.93501 10.3887 7.20555 10.8961 7.69481ZM22.8001 14.0681L13.4947 23.3748C13.306 23.5569 13.0534 23.6576 12.7912 23.6552C12.529 23.6528 12.2782 23.5475 12.0929 23.362C11.9076 23.1765 11.8025 22.9256 11.8004 22.6634C11.7982 22.4012 11.8991 22.1487 12.0814 21.9601L21.3854 12.6535C21.573 12.4659 21.8274 12.3605 22.0927 12.3605C22.358 12.3605 22.6125 12.4659 22.8001 12.6535C22.9877 12.8411 23.0931 13.0955 23.0931 13.3608C23.0931 13.6261 22.9877 13.8806 22.8001 14.0681Z" fill="currentColor"/>
</svg>
