<svg width="28" height="27" viewBox="0 0 28 27" fill="none" xmlns="http://www.w3.org/2000/svg">
<path d="M18.7346 7.47311L18.8455 7.66345L19.0608 7.71009L26.2978 9.27802C26.2979 9.27804 26.2979 9.27804 26.2979 9.27806C26.4972 9.32137 26.6816 9.41614 26.8328 9.55292C26.984 9.68973 27.0967 9.86379 27.1597 10.0578C27.2227 10.2517 27.2337 10.4588 27.1917 10.6584C27.1497 10.8579 27.0562 11.043 26.9203 11.1951L21.9871 16.7163L21.8403 16.8806L21.8625 17.0998L22.6092 24.4665L22.6092 24.4666C22.6298 24.6697 22.5968 24.8746 22.5135 25.0609C22.4301 25.2472 22.2994 25.4084 22.1343 25.5283C21.9691 25.6483 21.7754 25.7228 21.5725 25.7445C21.3696 25.7662 21.1645 25.7343 20.9777 25.6519L20.9776 25.6519L14.2016 22.6652L14 22.5763L13.7983 22.6652L7.02232 25.6519L7.02222 25.6519C6.83548 25.7343 6.6304 25.7662 6.42746 25.7445C6.22452 25.7228 6.03082 25.6483 5.8657 25.5283C5.70058 25.4084 5.56983 25.2472 5.48649 25.0609C5.40314 24.8746 5.37014 24.6697 5.39076 24.4666L5.39077 24.4665L6.13743 17.0998L6.15966 16.8806L6.01279 16.7162L1.07946 11.1962L1.07932 11.1961C0.943267 11.044 0.849493 10.8588 0.80736 10.6592C0.765228 10.4595 0.776212 10.2522 0.839215 10.0581C0.902218 9.86402 1.01504 9.68983 1.16641 9.55296C1.31778 9.41608 1.5024 9.3213 1.70185 9.27809L8.93919 7.71009L9.15447 7.66345L9.26535 7.47311L12.992 1.07584C13.0947 0.89959 13.2418 0.753351 13.4187 0.65171C13.5956 0.55007 13.796 0.496582 14 0.496582C14.204 0.496582 14.4044 0.55007 14.5813 0.65171L14.8277 0.222945L14.5813 0.65171C14.7581 0.753351 14.9053 0.89959 15.008 1.07584L18.7346 7.47311Z" fill="currentColor" stroke="#999999"/>
</svg>
