<svg width="25" height="24" viewBox="0 0 25 24" fill="none" xmlns="http://www.w3.org/2000/svg">
<path fill-rule="evenodd" clip-rule="evenodd" d="M6.86662 5.33333C6.86662 3.91885 7.42852 2.56229 8.42871 1.5621C9.42891 0.561903 10.7855 0 12.2 0C13.6144 0 14.971 0.561903 15.9712 1.5621C16.9714 2.56229 17.5333 3.91885 17.5333 5.33333C17.5333 6.74782 16.9714 8.10438 15.9712 9.10457C14.971 10.1048 13.6144 10.6667 12.2 10.6667C10.7855 10.6667 9.42891 10.1048 8.42871 9.10457C7.42852 8.10438 6.86662 6.74782 6.86662 5.33333ZM6.86662 13.3333C5.09851 13.3333 3.40282 14.0357 2.15257 15.286C0.90233 16.5362 0.199951 18.2319 0.199951 20C0.199951 21.0609 0.621379 22.0783 1.37152 22.8284C2.12167 23.5786 3.13909 24 4.19995 24H20.2C21.2608 24 22.2782 23.5786 23.0284 22.8284C23.7785 22.0783 24.2 21.0609 24.2 20C24.2 18.2319 23.4976 16.5362 22.2473 15.286C20.9971 14.0357 19.3014 13.3333 17.5333 13.3333H6.86662Z" fill="currentColor"/>
</svg>
