<svg width="32" height="32" viewBox="0 0 32 32" fill="none" xmlns="http://www.w3.org/2000/svg">
<rect width="18" height="16" transform="translate(7 7)" fill="white"/>
<path d="M20.7733 22.3999L16 19.3333L11.2266 22.3999L12.6666 16.9066L8.27996 13.3333L13.9466 12.9866L16 7.73325L18.0533 12.9866L23.72 13.3333L19.3333 16.9066M26.6666 15.9999C26.6666 15.2927 26.9476 14.6144 27.4477 14.1143C27.9478 13.6142 28.626 13.3333 29.3333 13.3333V7.99992C29.3333 7.29267 29.0523 6.6144 28.5522 6.1143C28.0521 5.6142 27.3739 5.33325 26.6666 5.33325H5.33329C4.62605 5.33325 3.94777 5.6142 3.44767 6.1143C2.94758 6.6144 2.66663 7.29267 2.66663 7.99992V13.3333C3.37387 13.3333 4.05215 13.6142 4.55224 14.1143C5.05234 14.6144 5.33329 15.2927 5.33329 15.9999C5.33329 16.7072 5.05234 17.3854 4.55224 17.8855C4.05215 18.3856 3.37387 18.6666 2.66663 18.6666V23.9999C2.66663 24.7072 2.94758 25.3854 3.44767 25.8855C3.94777 26.3856 4.62605 26.6666 5.33329 26.6666H26.6666C27.3739 26.6666 28.0521 26.3856 28.5522 25.8855C29.0523 25.3854 29.3333 24.7072 29.3333 23.9999V18.6666C28.626 18.6666 27.9478 18.3856 27.4477 17.8855C26.9476 17.3854 26.6666 16.7072 26.6666 15.9999Z" fill="#E00C39"/>
</svg>
