<svg width="22" height="22" viewBox="0 0 22 22" fill="none" xmlns="http://www.w3.org/2000/svg">
<path d="M17.5312 14.4375H14.7812C14.5914 14.4375 14.4375 14.5914 14.4375 14.7812V17.5312C14.4375 17.7211 14.5914 17.875 14.7812 17.875H17.5312C17.7211 17.875 17.875 17.7211 17.875 17.5312V14.7812C17.875 14.5914 17.7211 14.4375 17.5312 14.4375Z" fill="#E00C39"/>
<path d="M14.0938 11.6875H12.0312C11.8414 11.6875 11.6875 11.8414 11.6875 12.0312V14.0938C11.6875 14.2836 11.8414 14.4375 12.0312 14.4375H14.0938C14.2836 14.4375 14.4375 14.2836 14.4375 14.0938V12.0312C14.4375 11.8414 14.2836 11.6875 14.0938 11.6875Z" fill="#E00C39"/>
<path d="M20.2812 17.875H18.2188C18.0289 17.875 17.875 18.0289 17.875 18.2188V20.2812C17.875 20.4711 18.0289 20.625 18.2188 20.625H20.2812C20.4711 20.625 20.625 20.4711 20.625 20.2812V18.2188C20.625 18.0289 20.4711 17.875 20.2812 17.875Z" fill="#E00C39"/>
<path d="M20.2812 11.6875H18.9062C18.7164 11.6875 18.5625 11.8414 18.5625 12.0312V13.4062C18.5625 13.5961 18.7164 13.75 18.9062 13.75H20.2812C20.4711 13.75 20.625 13.5961 20.625 13.4062V12.0312C20.625 11.8414 20.4711 11.6875 20.2812 11.6875Z" fill="#E00C39"/>
<path d="M13.4062 18.5625H12.0312C11.8414 18.5625 11.6875 18.7164 11.6875 18.9062V20.2812C11.6875 20.4711 11.8414 20.625 12.0312 20.625H13.4062C13.5961 20.625 13.75 20.4711 13.75 20.2812V18.9062C13.75 18.7164 13.5961 18.5625 13.4062 18.5625Z" fill="#E00C39"/>
<path d="M19.25 1.375H13.0625C12.6978 1.375 12.3481 1.51987 12.0902 1.77773C11.8324 2.03559 11.6875 2.38533 11.6875 2.75V8.9375C11.6875 9.30217 11.8324 9.65191 12.0902 9.90977C12.3481 10.1676 12.6978 10.3125 13.0625 10.3125H19.25C19.6147 10.3125 19.9644 10.1676 20.2223 9.90977C20.4801 9.65191 20.625 9.30217 20.625 8.9375V2.75C20.625 2.38533 20.4801 2.03559 20.2223 1.77773C19.9644 1.51987 19.6147 1.375 19.25 1.375ZM17.875 7.21875C17.875 7.30992 17.8388 7.39735 17.7743 7.46182C17.7099 7.52628 17.6224 7.5625 17.5312 7.5625H14.7812C14.6901 7.5625 14.6026 7.52628 14.5382 7.46182C14.4737 7.39735 14.4375 7.30992 14.4375 7.21875V4.46875C14.4375 4.37758 14.4737 4.29015 14.5382 4.22568C14.6026 4.16122 14.6901 4.125 14.7812 4.125H17.5312C17.6224 4.125 17.7099 4.16122 17.7743 4.22568C17.8388 4.29015 17.875 4.37758 17.875 4.46875V7.21875ZM8.9375 1.375H2.75C2.38533 1.375 2.03559 1.51987 1.77773 1.77773C1.51987 2.03559 1.375 2.38533 1.375 2.75V8.9375C1.375 9.30217 1.51987 9.65191 1.77773 9.90977C2.03559 10.1676 2.38533 10.3125 2.75 10.3125H8.9375C9.30217 10.3125 9.65191 10.1676 9.90977 9.90977C10.1676 9.65191 10.3125 9.30217 10.3125 8.9375V2.75C10.3125 2.38533 10.1676 2.03559 9.90977 1.77773C9.65191 1.51987 9.30217 1.375 8.9375 1.375ZM7.5625 7.21875C7.5625 7.30992 7.52628 7.39735 7.46182 7.46182C7.39735 7.52628 7.30992 7.5625 7.21875 7.5625H4.46875C4.37758 7.5625 4.29015 7.52628 4.22568 7.46182C4.16122 7.39735 4.125 7.30992 4.125 7.21875V4.46875C4.125 4.37758 4.16122 4.29015 4.22568 4.22568C4.29015 4.16122 4.37758 4.125 4.46875 4.125H7.21875C7.30992 4.125 7.39735 4.16122 7.46182 4.22568C7.52628 4.29015 7.5625 4.37758 7.5625 4.46875V7.21875ZM8.9375 11.6875H2.75C2.38533 11.6875 2.03559 11.8324 1.77773 12.0902C1.51987 12.3481 1.375 12.6978 1.375 13.0625V19.25C1.375 19.6147 1.51987 19.9644 1.77773 20.2223C2.03559 20.4801 2.38533 20.625 2.75 20.625H8.9375C9.30217 20.625 9.65191 20.4801 9.90977 20.2223C10.1676 19.9644 10.3125 19.6147 10.3125 19.25V13.0625C10.3125 12.6978 10.1676 12.3481 9.90977 12.0902C9.65191 11.8324 9.30217 11.6875 8.9375 11.6875ZM7.5625 17.5312C7.5625 17.6224 7.52628 17.7099 7.46182 17.7743C7.39735 17.8388 7.30992 17.875 7.21875 17.875H4.46875C4.37758 17.875 4.29015 17.8388 4.22568 17.7743C4.16122 17.7099 4.125 17.6224 4.125 17.5312V14.7812C4.125 14.6901 4.16122 14.6026 4.22568 14.5382C4.29015 14.4737 4.37758 14.4375 4.46875 14.4375H7.21875C7.30992 14.4375 7.39735 14.4737 7.46182 14.5382C7.52628 14.6026 7.5625 14.6901 7.5625 14.7812V17.5312Z" fill="#E00C39"/>
</svg>
