<svg width="24" height="24" viewBox="0 0 24 24" fill="none" xmlns="http://www.w3.org/2000/svg">
<path d="M14.3906 1.63116C13.8516 1.87022 13.5 2.40928 13.5 2.99991V5.99991H8.25C3.69375 5.99991 0 9.69366 0 14.2499C0 19.5608 3.82031 21.9327 4.69687 22.4108C4.81406 22.4765 4.94531 22.4999 5.07656 22.4999C5.5875 22.4999 6 22.0827 6 21.5765C6 21.2249 5.79844 20.9015 5.54062 20.6624C5.1 20.2452 4.5 19.4249 4.5 17.9999C4.5 15.5155 6.51562 13.4999 9 13.4999H13.5V16.4999C13.5 17.0905 13.8469 17.6296 14.3906 17.8687C14.9344 18.1077 15.5625 18.0093 16.0031 17.6155L23.5031 10.8655C23.8172 10.5796 24 10.1765 24 9.74991C24 9.32334 23.8219 8.92022 23.5031 8.63428L16.0031 1.88428C15.7882 1.68964 15.5211 1.562 15.2347 1.51703C14.9482 1.47207 14.6549 1.51173 14.3906 1.63116Z" fill="#E00C39"/>
</svg>
