<svg width="20" height="20" viewBox="0 0 20 20" fill="none" xmlns="http://www.w3.org/2000/svg">
<path d="M11.9922 1.35913C11.543 1.55835 11.25 2.00757 11.25 2.49976V4.99976H6.875C3.07812 4.99976 0 8.07789 0 11.8748C0 16.3005 3.18359 18.2771 3.91406 18.6755C4.01172 18.7302 4.12109 18.7498 4.23047 18.7498C4.65625 18.7498 5 18.4021 5 17.9802C5 17.6873 4.83203 17.4177 4.61719 17.2185C4.25 16.8709 3.75 16.1873 3.75 14.9998C3.75 12.9294 5.42969 11.2498 7.5 11.2498H11.25V13.7498C11.25 14.2419 11.5391 14.6912 11.9922 14.8904C12.4453 15.0896 12.9688 15.0076 13.3359 14.6794L19.5859 9.05445C19.8477 8.81617 20 8.48023 20 8.12476C20 7.76929 19.8516 7.43335 19.5859 7.19507L13.3359 1.57007C13.1568 1.40787 12.9343 1.30151 12.6955 1.26403C12.4568 1.22656 12.2124 1.25961 11.9922 1.35913Z" fill="white"/>
</svg>
