<svg width="36" height="34" viewBox="0 0 36 34" fill="none" xmlns="http://www.w3.org/2000/svg">
<path d="M24.0263 10.0283L24.1371 10.2187L24.3524 10.2653L33.3988 12.2253C33.6693 12.284 33.9196 12.4127 34.1248 12.5983C34.33 12.784 34.483 13.0202 34.5685 13.2835C34.654 13.5467 34.669 13.8277 34.612 14.0986L35.1013 14.2015L34.612 14.0986C34.555 14.3693 34.4281 14.6204 34.2438 14.8269C34.2437 14.8269 34.2437 14.8269 34.2437 14.827L28.0771 21.7285L27.9303 21.8928L27.9525 22.1121L28.8859 31.3204L28.8859 31.3205C28.9138 31.5961 28.8691 31.8742 28.7559 32.127C28.6428 32.3799 28.4654 32.5986 28.2413 32.7614C28.0172 32.9242 27.7543 33.0254 27.4789 33.0548C27.2035 33.0843 26.9252 33.0409 26.6717 32.9292L26.6716 32.9291L18.2016 29.1958L18 29.1069L17.7983 29.1958L9.32831 32.9291L9.32822 32.9292C9.07478 33.0409 8.79646 33.0843 8.52104 33.0548C8.24562 33.0254 7.98274 32.9242 7.75866 32.7614L7.46476 33.1659L7.75865 32.7614C7.53457 32.5986 7.35711 32.3799 7.244 32.127C7.1309 31.8742 7.0861 31.5961 7.11408 31.3205L7.11409 31.3204L8.04743 22.1121L8.06965 21.8928L7.92278 21.7285L1.75612 14.8285L1.75598 14.8283C1.57134 14.6219 1.44407 14.3706 1.38689 14.0996C1.32971 13.8286 1.34462 13.5474 1.43012 13.2839C1.51563 13.0205 1.66874 12.7841 1.87417 12.5984C2.0796 12.4126 2.33017 12.284 2.60085 12.2253L11.6475 10.2653L11.8628 10.2187L11.9737 10.0283L16.632 2.03174C16.7714 1.79255 16.971 1.59408 17.2111 1.45614C17.4511 1.3182 17.7231 1.24561 18 1.24561C18.2768 1.24561 18.5488 1.3182 18.7889 1.45614C19.0289 1.59406 19.2285 1.79251 19.3679 2.03168C19.3679 2.0317 19.368 2.03172 19.368 2.03174L24.0263 10.0283Z" fill="currentColor"/>
</svg>
